PathFileType  4	(X/Y/Z) C:\Users\antoi\Documents\MyRepositories\mobilecap\ResultsAnalysis
DataRate	CameraRate	NumFrames	NumMarkers	Units	OrigDataRate	OrigDataStartFrame	OrigNumFrames
100.0	100.0	4	51	mm	100.0	102	270
Frame#	Time	r_knee			r_shank_antsup			r_ankle			r_calc			r_5meta			r_toe			L_knee			L_shank_antsup			L_ankle			L_calc			L_5meta			L_toe			r_sh2			r_sh3			r_sh4			L_sh2			L_sh3			r_thigh1			r_thigh2			r_thigh3			r_thigh4			r_thigh5			L_thigh1			L_thigh2			L_thigh3			L_thigh4			r.ASIS			r.PSIS			L.ASIS			L.PSIS			C7			R_Shoulder			L_Shoulder			R_Sternum			L_Sternum			R_humerus			R_elbow_med			R_elbow_lat			R_forearm			R_wrist_radius			R_wrist_ulna			L_humerus			L_elbow_med			L_elbow_lat			L_forearm			L_wrist_radius			L_wrist_ulna			R_HJC			L_HJC			R_HJC_reg			L_HJC_reg			
		X1	Y1	Z1	X2	Y2	Z2	X3	Y3	Z3	X4	Y4	Z4	X5	Y5	Z5	X6	Y6	Z6	X7	Y7	Z7	X8	Y8	Z8	X9	Y9	Z9	X10	Y10	Z10	X11	Y11	Z11	X12	Y12	Z12	X13	Y13	Z13	X14	Y14	Z14	X15	Y15	Z15	X16	Y16	Z16	X17	Y17	Z17	X18	Y18	Z18	X19	Y19	Z19	X20	Y20	Z20	X21	Y21	Z21	X22	Y22	Z22	X23	Y23	Z23	X24	Y24	Z24	X25	Y25	Z25	X26	Y26	Z26	X27	Y27	Z27	X28	Y28	Z28	X29	Y29	Z29	X30	Y30	Z30	X31	Y31	Z31	X32	Y32	Z32	X33	Y33	Z33	X34	Y34	Z34	X35	Y35	Z35	X36	Y36	Z36	X37	Y37	Z37	X38	Y38	Z38	X39	Y39	Z39	X40	Y40	Z40	X41	Y41	Z41	X42	Y42	Z42	X43	Y43	Z43	X44	Y44	Z44	X45	Y45	Z45	X46	Y46	Z46	X47	Y47	Z47	X48	Y48	Z48	X49	Y49	Z49	X50	Y50	Z50	X51	Y51	Z51	

102	1.01000000	-828.16104	876.51543	-429.01243	-849.00777	793.17988	-415.50462	-1118.99081	553.46081	-433.39649	-1195.99235	558.79007	-483.26359	-1069.58140	403.30509	-398.74517	-1023.36039	398.05100	-453.88602	-670.10625	938.65982	-749.99111	-686.78594	825.64314	-769.01301	-886.00154	564.33338	-739.76510	-959.92693	554.11078	-683.44090	-806.28984	426.24408	-799.51480	-758.29933	434.35292	-744.02294	-923.79291	708.11391	-408.55026	-903.19159	843.15115	-395.58719	-986.93327	762.58781	-395.52677	-762.56660	876.44244	-769.08333	-818.54481	769.59552	-765.20923	-760.53233	1189.45593	-387.35458	-745.32455	1080.22902	-403.88525	-797.73009	1045.04589	-380.08943	-873.03685	1170.36034	-386.06068	-851.04321	1055.57887	-391.25196	-728.93968	1256.51482	-755.15312	-660.32364	1135.62996	-763.03024	-831.53962	1197.18750	-749.16895	-756.77401	1080.78230	-766.13293	-742.90985	1386.51818	-425.74979	-925.94424	1460.16984	-496.43483	-752.17663	1410.25055	-684.95069	-933.42227	1465.27471	-605.18851	-875.31783	1964.56906	-530.58790	-850.67125	1957.36329	-395.57337	-809.51699	1960.58291	-648.44852	-734.24765	1878.28205	-487.76569	-728.15035	1881.19635	-544.76800	-718.87428	1868.46013	-200.80189	-639.67629	1757.94611	-201.27612	-652.14281	1832.05112	-144.28528	-562.06653	1925.55979	-237.24787	-497.35561	1977.85497	-319.62194	-480.93737	1976.99399	-277.17416	-727.03798	1893.01252	-877.69542	-666.90279	1774.04487	-928.29346	-680.61832	1851.90697	-951.60292	-551.73074	1939.97062	-879.02622	-492.62882	1981.11059	-811.47707	-472.31656	1978.46745	-844.25143	-837.67060	1321.96395	-438.62923	-840.12482	1340.02485	-668.27505	-826.04211	1331.73827	-459.51050	-837.82022	1339.77993	-630.81407	
103	1.02000000	-805.31447	881.75257	-428.04356	-826.67411	799.32872	-414.19369	-1100.25517	563.77822	-435.69084	-1175.88417	568.03501	-487.91257	-1052.08469	414.13416	-396.49344	-1004.10903	407.28052	-449.73000	-660.75075	940.92569	-748.51919	-673.95735	826.79229	-767.23297	-864.22445	558.46255	-739.27336	-938.37019	545.99553	-684.21980	-779.23839	422.23041	-797.28573	-732.25441	432.61077	-741.27672	-902.69259	715.17798	-407.83345	-880.51619	850.05895	-394.97361	-964.67345	769.45017	-396.01304	-751.41538	875.14470	-768.05538	-803.88060	766.44055	-764.45211	-746.27108	1195.77841	-386.14624	-727.98102	1086.93256	-402.15257	-779.84293	1050.41411	-378.96346	-858.24921	1173.53125	-387.14199	-832.98479	1059.32269	-391.35590	-717.56780	1260.07844	-754.13423	-649.92152	1138.68573	-761.69805	-820.71658	1201.70649	-748.43462	-746.87873	1084.57808	-765.07693	-731.55300	1392.32606	-425.63394	-914.73961	1464.91954	-496.38755	-740.45981	1415.95734	-684.69866	-921.65036	1470.44125	-604.86031	-865.02471	1969.72309	-531.64019	-840.82370	1962.57057	-396.82466	-799.65727	1965.04391	-649.48753	-724.06654	1883.63836	-489.39648	-718.07191	1886.30972	-545.65821	-713.14877	1874.27900	-198.60294	-635.50038	1762.21846	-196.08733	-648.08087	1837.39208	-140.57856	-557.67180	1929.00989	-234.84800	-493.32694	1979.40879	-318.35168	-476.77382	1979.45226	-275.54007	-720.59685	1897.95954	-880.18147	-661.33323	1779.22990	-932.28337	-675.44871	1857.07166	-954.59009	-545.95554	1944.38193	-882.51914	-486.43368	1984.68075	-814.41445	-467.43032	1984.02589	-849.05422	-825.88533	1327.23811	-438.52527	-828.11170	1345.46590	-668.16022	-814.46197	1336.51385	-460.10459	-825.37021	1345.23004	-631.32890	
104	1.03000000	-782.73793	886.86730	-427.02842	-804.95649	805.38952	-412.68121	-1080.35564	572.07549	-438.66300	-1154.41939	574.33876	-493.37734	-1032.20047	424.19496	-393.69110	-982.41111	416.71912	-445.23064	-651.65664	942.12156	-747.23447	-661.73934	827.08565	-766.82708	-842.07459	551.53749	-739.10708	-916.55173	537.28220	-684.69131	-752.44324	417.28533	-794.48753	-706.21815	429.67925	-738.10102	-881.70132	721.91343	-407.01927	-858.92159	856.71505	-394.63588	-943.27983	776.58861	-397.11578	-740.65570	872.59317	-767.52635	-789.03105	761.66806	-764.29622	-732.47100	1201.44968	-384.74166	-711.21674	1093.20917	-399.81243	-762.46418	1055.27367	-377.47842	-843.75408	1176.16082	-388.08454	-815.46665	1062.42965	-391.50223	-705.87157	1262.63596	-752.74537	-639.32254	1140.70071	-760.29628	-809.57254	1205.47005	-748.16089	-736.83019	1087.46275	-764.05701	-720.33387	1397.15000	-425.54897	-903.70960	1468.57523	-496.25622	-728.82055	1420.54946	-684.39965	-910.30161	1474.32436	-604.46298	-854.59623	1974.04155	-532.68977	-830.74093	1966.82857	-397.74325	-789.69208	1968.64307	-650.52626	-714.05142	1887.30996	-490.41918	-707.92445	1890.37592	-546.33130	-707.20140	1878.59233	-196.39820	-631.20078	1765.08076	-191.17239	-644.06147	1841.35635	-136.79244	-552.86331	1930.99564	-231.86394	-488.76994	1978.81477	-316.62957	-471.99855	1979.87149	-273.63779	-713.36227	1901.35396	-882.10728	-655.52432	1782.59024	-935.09874	-669.84669	1860.72757	-957.05988	-539.56548	1947.06507	-885.93384	-478.87299	1986.69367	-817.50539	-460.95774	1986.89449	-852.88255	-814.16094	1331.45968	-438.31862	-816.24067	1349.72620	-667.95188	-802.80598	1340.47662	-460.42211	-813.22829	1349.56552	-631.49425	
105	1.04000000	-760.63247	891.77173	-426.09319	-783.57246	811.21220	-411.05096	-1058.53784	577.86762	-441.53438	-1131.16708	578.02420	-498.48425	-1010.42419	431.89719	-391.20220	-958.56618	423.99920	-441.20634	-642.88738	942.31417	-746.35569	-650.05753	826.56433	-767.55005	-819.74174	543.78340	-738.95840	-894.19044	528.10188	-684.97374	-726.10612	411.20384	-791.32041	-680.29506	425.56652	-734.64860	-860.52299	727.85825	-406.46358	-838.01754	862.65979	-395.33975	-922.41979	783.25884	-398.90822	-730.17940	868.80787	-767.31184	-774.23312	756.26137	-764.25429	-719.22114	1206.63389	-382.97602	-695.14845	1099.01839	-397.19489	-745.60003	1059.77485	-375.75438	-829.60605	1178.47605	-388.81486	-798.48106	1065.76816	-391.33420	-693.74962	1264.16324	-751.04478	-628.54427	1141.59314	-758.65950	-798.06452	1208.45317	-748.42570	-726.59309	1089.51427	-763.42566	-709.09466	1401.13978	-425.44330	-892.72140	1471.02125	-496.25884	-717.15865	1424.04004	-684.06970	-899.25012	1476.82094	-604.15052	-844.07239	1977.51106	-533.69289	-820.41397	1970.17340	-398.35888	-779.58110	1971.45490	-651.83561	-704.05752	1890.01024	-491.33147	-697.61288	1893.61336	-546.82406	-701.07708	1881.37068	-194.17138	-627.17020	1766.62926	-186.33925	-640.12789	1843.97202	-132.93548	-547.76633	1931.25167	-228.70391	-483.26812	1976.56501	-314.55129	-466.49183	1978.29150	-271.96499	-705.49625	1903.29003	-883.55792	-650.33292	1784.27671	-937.46575	-663.90795	1862.93915	-959.30039	-532.56708	1947.96007	-889.35848	-470.69798	1986.89474	-821.25243	-453.01694	1986.77271	-856.00553	-802.30417	1334.68413	-438.03019	-804.25429	1352.72593	-667.68244	-790.84067	1343.54813	-460.43977	-801.18233	1352.73434	-631.32625	
